# MagicaVoxel @ Ephtracy

# group
o 

# material
mtllib Rock2.mtl
usemtl palette

# normals
vn -1 0 0
vn 1 0 0
vn 0 0 1
vn 0 0 -1
vn 0 -1 0
vn 0 1 0

# texcoords
vt 0.931641 0.5
vt 0.935547 0.5
vt 0.939453 0.5
vt 0.986328 0.5

# verts
v -0.9 0 -0.1
v -0.9 0 -0.2
v -0.9 0.2 -0.1
v -0.9 0.2 -0.2
v -0.8 0 -5.96046e-008
v -0.8 0 -0.1
v -0.8 0 -0.2
v -0.8 0 -0.4
v -0.8 0.2 -0.1
v -0.8 0.2 -0.2
v -0.8 0.2 -0.3
v -0.8 0.3 -5.96046e-008
v -0.8 0.3 -0.1
v -0.8 0.3 -0.3
v -0.8 0.3 -0.4
v -0.7 0 -0.4
v -0.7 0 -0.5
v -0.7 0.2 -0.2
v -0.7 0.2 -0.3
v -0.7 0.3 -5.96046e-008
v -0.7 0.3 -0.1
v -0.7 0.3 -0.2
v -0.7 0.3 -0.3
v -0.7 0.3 -0.4
v -0.7 0.3 -0.5
v -0.7 0.4 -5.96046e-008
v -0.7 0.4 -0.1
v -0.7 0.4 -0.3
v -0.7 0.4 -0.4
v -0.7 0.4 -0.5
v -0.6 0 0.0999999
v -0.6 0 -5.96046e-008
v -0.6 0 -0.5
v -0.6 0 -0.6
v -0.6 0.2 -0.1
v -0.6 0.2 -0.2
v -0.6 0.3 -5.96046e-008
v -0.6 0.3 -0.1
v -0.6 0.3 -0.2
v -0.6 0.3 -0.3
v -0.6 0.3 -0.5
v -0.6 0.3 -0.6
v -0.6 0.4 -5.96046e-008
v -0.6 0.4 -0.1
v -0.6 0.4 -0.3
v -0.6 0.4 -0.4
v -0.6 0.4 -0.5
v -0.6 0.4 -0.6
v -0.6 0.5 0.0999999
v -0.6 0.5 -0.1
v -0.6 0.5 -0.2
v -0.6 0.5 -0.3
v -0.6 0.5 -0.4
v -0.6 0.5 -0.5
v -0.6 0.5 -0.6
v -0.6 0.6 -0.2
v -0.6 0.6 -0.3
v -0.6 0.6 -0.4
v -0.6 0.7 -0.2
v -0.6 0.7 -0.3
v -0.5 0 0.2
v -0.5 0 0.0999999
v -0.5 0 -0.6
v -0.5 0 -0.7
v -0.5 0.1 0.2
v -0.5 0.1 0.0999999
v -0.5 0.3 -0.6
v -0.5 0.3 -0.7
v -0.5 0.4 -0.6
v -0.5 0.4 -0.7
v -0.5 0.5 -5.96046e-008
v -0.5 0.5 -0.1
v -0.5 0.5 -0.2
v -0.5 0.5 -0.4
v -0.5 0.5 -0.5
v -0.5 0.6 -5.96046e-008
v -0.5 0.6 -0.1
v -0.5 0.6 -0.2
v -0.5 0.6 -0.3
v -0.5 0.6 -0.4
v -0.5 0.6 -0.5
v -0.5 0.7 -0.1
v -0.5 0.7 -0.2
v -0.5 0.7 -0.3
v -0.5 0.7 -0.4
v -0.4 0.1 0.2
v -0.4 0.1 0.0999999
v -0.4 0.2 0.2
v -0.4 0.2 0.0999999
v -0.4 0.3 -5.96046e-008
v -0.4 0.3 -0.1
v -0.4 0.4 -5.96046e-008
v -0.4 0.4 -0.1
v -0.4 0.6 -0.2
v -0.4 0.6 -0.3
v -0.4 0.7 -0.2
v -0.4 0.7 -0.3
v -0.3 0 -0.7
v -0.3 0 -0.8
v -0.3 0.3 -0.7
v -0.3 0.3 -0.8
v -0.3 0.4 -0.7
v -0.3 0.4 -0.8
v -0.2 0.4 -0.4
v -0.2 0.4 -0.5
v -0.2 0.5 -0.4
v -0.2 0.5 -0.5
v -0.2 0.7 -0.4
v -0.2 0.7 -0.5
v -0.1 0.4 -0.2
v -0.1 0.4 -0.3
v -0.1 0.4 -0.5
v -0.1 0.4 -0.6
v -0.1 0.5 -0.3
v -0.1 0.5 -0.5
v -0.1 0.5 -0.6
v -0.1 0.6 -0.2
v -0.1 0.6 -0.3
v -0.5 0.3 0.0999999
v -0.5 0.3 -5.96046e-008
v -0.5 0.3 -0.1
v -0.5 0.4 -5.96046e-008
v -0.5 0.4 -0.1
v -0.5 0.5 0.0999999
v -0.5 0.5 -5.96046e-008
v -0.5 0.6 -0.2
v -0.5 0.6 -0.3
v -0.5 0.7 -0.2
v -0.5 0.7 -0.3
v -0.4 0.4 -5.96046e-008
v -0.4 0.4 -0.1
v -0.4 0.4 -0.5
v -0.4 0.4 -0.6
v -0.4 0.5 -0.1
v -0.4 0.5 -0.5
v -0.4 0.5 -0.6
v -0.4 0.6 -5.96046e-008
v -0.4 0.6 -0.1
v -0.4 0.6 -0.2
v -0.4 0.7 -0.1
v -0.4 0.7 -0.2
v -0.3 0 0.2
v -0.3 0 0.0999999
v -0.3 0.2 0.2
v -0.3 0.2 0.0999999
v -0.3 0.2 -5.96046e-008
v -0.3 0.3 0.0999999
v -0.3 0.3 -5.96046e-008
v -0.3 0.4 -0.2
v -0.3 0.4 -0.3
v -0.3 0.4 -0.4
v -0.3 0.4 -0.5
v -0.3 0.5 -0.2
v -0.3 0.5 -0.3
v -0.3 0.6 -0.2
v -0.3 0.6 -0.3
v -0.3 0.6 -0.4
v -0.3 0.6 -0.5
v -0.3 0.7 -0.2
v -0.3 0.7 -0.3
v -0.2 0 -0.7
v -0.2 0 -0.8
v -0.2 0.3 -0.7
v -0.2 0.3 -0.8
v -0.2 0.4 -0.1
v -0.2 0.4 -0.2
v -0.2 0.4 -0.7
v -0.2 0.4 -0.8
v -0.2 0.5 -0.1
v -0.2 0.5 -0.2
v -0.2 0.5 -0.3
v -0.2 0.6 -0.1
v -0.2 0.6 -0.3
v -0.2 0.6 -0.4
v -0.2 0.7 -0.3
v -0.2 0.7 -0.4
v -0.1 0 0.0999999
v -0.1 0 -5.96046e-008
v -0.1 0 -0.6
v -0.1 0 -0.7
v -0.1 0.2 0.0999999
v -0.1 0.2 -5.96046e-008
v -0.1 0.3 -5.96046e-008
v -0.1 0.3 -0.1
v -0.1 0.3 -0.2
v -0.1 0.3 -0.6
v -0.1 0.3 -0.7
v -0.1 0.4 -5.96046e-008
v -0.1 0.4 -0.1
v -0.1 0.4 -0.2
v -0.1 0.4 -0.6
v -0.1 0.4 -0.7
v -0.1 0.5 -0.3
v -0.1 0.5 -0.4
v -0.1 0.6 -0.3
v -0.1 0.6 -0.4
v -0.1 0.6 -0.5
v -0.1 0.7 -0.4
v -0.1 0.7 -0.5
v 0 0.2 -5.96046e-008
v 0 0.2 -0.1
v 0 0.3 -5.96046e-008
v 0 0.3 -0.1
v 0 0.4 -0.3
v 0 0.4 -0.4
v 0 0.4 -0.5
v 0 0.4 -0.6
v 0 0.5 -0.2
v 0 0.5 -0.3
v 0 0.5 -0.4
v 0 0.5 -0.5
v 0 0.5 -0.6
v 0 0.6 -0.2
v 0 0.6 -0.3
v 0 0.6 -0.4
v 0 0.6 -0.5
v 0.1 0 -5.96046e-008
v 0.1 0 -0.6
v 0.1 0.2 -5.96046e-008
v 0.1 0.2 -0.1
v 0.1 0.3 -0.1
v 0.1 0.3 -0.2
v 0.1 0.3 -0.4
v 0.1 0.3 -0.5
v 0.1 0.4 -0.3
v 0.1 0.4 -0.4
v 0.1 0.4 -0.5
v 0.1 0.4 -0.6
v 0.1 0.5 -0.2
v 0.1 0.5 -0.3
v -0.5 0 0.2
v -0.5 0.1 0.2
v -0.4 0.1 0.2
v -0.4 0.2 0.2
v -0.3 0 0.2
v -0.3 0.2 0.2
v -0.6 0 0.0999999
v -0.6 0.5 0.0999999
v -0.5 0 0.0999999
v -0.5 0.1 0.0999999
v -0.5 0.3 0.0999999
v -0.5 0.5 0.0999999
v -0.4 0.1 0.0999999
v -0.4 0.2 0.0999999
v -0.3 0 0.0999999
v -0.3 0.2 0.0999999
v -0.3 0.3 0.0999999
v -0.1 0 0.0999999
v -0.1 0.2 0.0999999
v -0.8 0 -5.96046e-008
v -0.8 0.3 -5.96046e-008
v -0.7 0.3 -5.96046e-008
v -0.7 0.4 -5.96046e-008
v -0.6 0 -5.96046e-008
v -0.6 0.3 -5.96046e-008
v -0.6 0.4 -5.96046e-008
v -0.5 0.4 -5.96046e-008
v -0.5 0.5 -5.96046e-008
v -0.5 0.6 -5.96046e-008
v -0.4 0.3 -5.96046e-008
v -0.4 0.4 -5.96046e-008
v -0.4 0.6 -5.96046e-008
v -0.3 0.2 -5.96046e-008
v -0.3 0.3 -5.96046e-008
v -0.2 0.3 -5.96046e-008
v -0.2 0.4 -5.96046e-008
v -0.1 0 -5.96046e-008
v -0.1 0.2 -5.96046e-008
v -0.1 0.3 -5.96046e-008
v -0.1 0.4 -5.96046e-008
v 0 0.2 -5.96046e-008
v 0 0.3 -5.96046e-008
v 0.1 0 -5.96046e-008
v 0.1 0.2 -5.96046e-008
v -0.9 0 -0.1
v -0.9 0.2 -0.1
v -0.8 0 -0.1
v -0.8 0.2 -0.1
v -0.5 0.3 -0.1
v -0.5 0.4 -0.1
v -0.5 0.6 -0.1
v -0.5 0.7 -0.1
v -0.4 0.3 -0.1
v -0.4 0.4 -0.1
v -0.4 0.5 -0.1
v -0.4 0.6 -0.1
v -0.4 0.7 -0.1
v -0.2 0.4 -0.1
v -0.2 0.5 -0.1
v -0.2 0.6 -0.1
v 0 0.2 -0.1
v 0 0.3 -0.1
v 0.1 0.2 -0.1
v 0.1 0.3 -0.1
v -0.7 0.2 -0.2
v -0.7 0.3 -0.2
v -0.6 0.2 -0.2
v -0.6 0.3 -0.2
v -0.6 0.5 -0.2
v -0.6 0.6 -0.2
v -0.6 0.7 -0.2
v -0.5 0.5 -0.2
v -0.5 0.6 -0.2
v -0.5 0.7 -0.2
v -0.4 0.6 -0.2
v -0.4 0.7 -0.2
v -0.3 0.6 -0.2
v -0.3 0.7 -0.2
v -0.1 0.3 -0.2
v -0.1 0.4 -0.2
v -0.1 0.6 -0.2
v 0 0.5 -0.2
v 0 0.6 -0.2
v 0.1 0.3 -0.2
v 0.1 0.5 -0.2
v -0.8 0.2 -0.3
v -0.8 0.3 -0.3
v -0.7 0.2 -0.3
v -0.7 0.3 -0.3
v -0.7 0.4 -0.3
v -0.6 0.3 -0.3
v -0.6 0.4 -0.3
v -0.5 0.6 -0.3
v -0.5 0.7 -0.3
v -0.4 0.6 -0.3
v -0.4 0.7 -0.3
v -0.3 0.4 -0.3
v -0.3 0.5 -0.3
v -0.3 0.6 -0.3
v -0.3 0.7 -0.3
v -0.2 0.4 -0.3
v -0.2 0.5 -0.3
v -0.2 0.6 -0.3
v -0.2 0.7 -0.3
v -0.1 0.4 -0.3
v -0.1 0.5 -0.3
v -0.1 0.6 -0.3
v -0.2 0.6 -0.4
v -0.2 0.7 -0.4
v -0.1 0.5 -0.4
v -0.1 0.6 -0.4
v -0.1 0.7 -0.4
v 0 0.5 -0.4
v 0 0.6 -0.4
v -0.8 0.2 -0.1
v -0.8 0.3 -0.1
v -0.7 0.3 -0.1
v -0.7 0.4 -0.1
v -0.6 0.2 -0.1
v -0.6 0.3 -0.1
v -0.6 0.4 -0.1
v -0.9 0 -0.2
v -0.9 0.2 -0.2
v -0.8 0 -0.2
v -0.8 0.2 -0.2
v -0.5 0.6 -0.2
v -0.5 0.7 -0.2
v -0.4 0.6 -0.2
v -0.4 0.7 -0.2
v -0.3 0.4 -0.2
v -0.3 0.5 -0.2
v -0.2 0.4 -0.2
v -0.2 0.5 -0.2
v -0.6 0.6 -0.3
v -0.6 0.7 -0.3
v -0.5 0.6 -0.3
v -0.5 0.7 -0.3
v -0.1 0.5 -0.3
v -0.1 0.6 -0.3
v 0 0.4 -0.3
v 0 0.5 -0.3
v 0 0.6 -0.3
v 0.1 0.4 -0.3
v 0.1 0.5 -0.3
v -0.8 0 -0.4
v -0.8 0.3 -0.4
v -0.7 0 -0.4
v -0.7 0.3 -0.4
v -0.6 0.5 -0.4
v -0.6 0.6 -0.4
v -0.5 0.5 -0.4
v -0.5 0.6 -0.4
v -0.5 0.7 -0.4
v -0.4 0.6 -0.4
v -0.3 0.4 -0.4
v -0.3 0.6 -0.4
v -0.2 0.4 -0.4
v -0.2 0.5 -0.4
v -0.2 0.7 -0.4
v -0.7 0 -0.5
v -0.7 0.3 -0.5
v -0.7 0.4 -0.5
v -0.6 0 -0.5
v -0.6 0.3 -0.5
v -0.6 0.4 -0.5
v -0.5 0.5 -0.5
v -0.5 0.6 -0.5
v -0.4 0.4 -0.5
v -0.4 0.5 -0.5
v -0.4 0.6 -0.5
v -0.3 0.4 -0.5
v -0.3 0.6 -0.5
v -0.2 0.4 -0.5
v -0.2 0.5 -0.5
v -0.2 0.7 -0.5
v -0.1 0.4 -0.5
v -0.1 0.5 -0.5
v -0.1 0.6 -0.5
v -0.1 0.7 -0.5
v 0 0.5 -0.5
v 0 0.6 -0.5
v -0.6 0 -0.6
v -0.6 0.3 -0.6
v -0.6 0.4 -0.6
v -0.6 0.5 -0.6
v -0.5 0 -0.6
v -0.5 0.3 -0.6
v -0.5 0.4 -0.6
v -0.5 0.5 -0.6
v -0.4 0.4 -0.6
v -0.4 0.5 -0.6
v -0.1 0 -0.6
v -0.1 0.3 -0.6
v -0.1 0.4 -0.6
v -0.1 0.5 -0.6
v 0 0.3 -0.6
v 0 0.4 -0.6
v 0 0.5 -0.6
v 0.1 0 -0.6
v 0.1 0.4 -0.6
v -0.5 0 -0.7
v -0.5 0.3 -0.7
v -0.5 0.4 -0.7
v -0.4 0.3 -0.7
v -0.4 0.4 -0.7
v -0.3 0 -0.7
v -0.3 0.3 -0.7
v -0.3 0.4 -0.7
v -0.2 0 -0.7
v -0.2 0.3 -0.7
v -0.2 0.4 -0.7
v -0.1 0 -0.7
v -0.1 0.3 -0.7
v -0.1 0.4 -0.7
v -0.3 0 -0.8
v -0.3 0.3 -0.8
v -0.3 0.4 -0.8
v -0.2 0 -0.8
v -0.2 0.3 -0.8
v -0.2 0.4 -0.8
v -0.5 0 0.2
v -0.3 0 0.2
v -0.6 0 0.0999999
v -0.5 0 0.0999999
v -0.3 0 0.0999999
v -0.1 0 0.0999999
v -0.8 0 -5.96046e-008
v -0.6 0 -5.96046e-008
v -0.1 0 -5.96046e-008
v 0.1 0 -5.96046e-008
v -0.9 0 -0.1
v -0.8 0 -0.1
v -0.9 0 -0.2
v -0.8 0 -0.2
v -0.8 0 -0.4
v -0.7 0 -0.4
v -0.7 0 -0.5
v -0.6 0 -0.5
v -0.6 0 -0.6
v -0.5 0 -0.6
v -0.1 0 -0.6
v 0.1 0 -0.6
v -0.5 0 -0.7
v -0.3 0 -0.7
v -0.2 0 -0.7
v -0.1 0 -0.7
v -0.3 0 -0.8
v -0.2 0 -0.8
v -0.5 0.4 -5.96046e-008
v -0.4 0.4 -5.96046e-008
v -0.5 0.4 -0.1
v -0.4 0.4 -0.1
v -0.3 0.5 -0.2
v -0.2 0.5 -0.2
v -0.3 0.5 -0.3
v -0.2 0.5 -0.3
v -0.5 0.1 0.2
v -0.4 0.1 0.2
v -0.5 0.1 0.0999999
v -0.4 0.1 0.0999999
v -0.4 0.2 0.2
v -0.3 0.2 0.2
v -0.4 0.2 0.0999999
v -0.3 0.2 0.0999999
v -0.1 0.2 0.0999999
v -0.3 0.2 -5.96046e-008
v -0.1 0.2 -5.96046e-008
v 0 0.2 -5.96046e-008
v 0.1 0.2 -5.96046e-008
v -0.9 0.2 -0.1
v -0.8 0.2 -0.1
v -0.6 0.2 -0.1
v 0 0.2 -0.1
v 0.1 0.2 -0.1
v -0.9 0.2 -0.2
v -0.8 0.2 -0.2
v -0.7 0.2 -0.2
v -0.6 0.2 -0.2
v -0.8 0.2 -0.3
v -0.7 0.2 -0.3
v -0.5 0.3 0.0999999
v -0.3 0.3 0.0999999
v -0.8 0.3 -5.96046e-008
v -0.7 0.3 -5.96046e-008
v -0.5 0.3 -5.96046e-008
v -0.4 0.3 -5.96046e-008
v -0.3 0.3 -5.96046e-008
v -0.1 0.3 -5.96046e-008
v 0 0.3 -5.96046e-008
v -0.8 0.3 -0.1
v -0.7 0.3 -0.1
v -0.5 0.3 -0.1
v -0.4 0.3 -0.1
v -0.1 0.3 -0.1
v 0 0.3 -0.1
v 0.1 0.3 -0.1
v -0.7 0.3 -0.2
v -0.6 0.3 -0.2
v -0.1 0.3 -0.2
v 0.1 0.3 -0.2
v -0.8 0.3 -0.3
v -0.7 0.3 -0.3
v -0.6 0.3 -0.3
v -0.8 0.3 -0.4
v -0.7 0.3 -0.4
v -0.7 0.4 -5.96046e-008
v -0.6 0.4 -5.96046e-008
v -0.4 0.4 -5.96046e-008
v -0.2 0.4 -5.96046e-008
v -0.1 0.4 -5.96046e-008
v -0.7 0.4 -0.1
v -0.6 0.4 -0.1
v -0.4 0.4 -0.1
v -0.2 0.4 -0.1
v -0.1 0.4 -0.1
v -0.3 0.4 -0.2
v -0.2 0.4 -0.2
v -0.1 0.4 -0.2
v -0.7 0.4 -0.3
v -0.6 0.4 -0.3
v -0.3 0.4 -0.3
v -0.2 0.4 -0.3
v -0.1 0.4 -0.3
v 0 0.4 -0.3
v 0.1 0.4 -0.3
v -0.7 0.4 -0.4
v -0.6 0.4 -0.4
v -0.3 0.4 -0.4
v -0.2 0.4 -0.4
v 0 0.4 -0.4
v 0.1 0.4 -0.4
v -0.7 0.4 -0.5
v -0.6 0.4 -0.5
v -0.4 0.4 -0.5
v -0.3 0.4 -0.5
v -0.2 0.4 -0.5
v -0.1 0.4 -0.5
v 0 0.4 -0.5
v 0.1 0.4 -0.5
v -0.5 0.4 -0.6
v -0.4 0.4 -0.6
v -0.2 0.4 -0.6
v -0.1 0.4 -0.6
v 0 0.4 -0.6
v 0.1 0.4 -0.6
v -0.5 0.4 -0.7
v -0.4 0.4 -0.7
v -0.3 0.4 -0.7
v -0.2 0.4 -0.7
v -0.1 0.4 -0.7
v -0.3 0.4 -0.8
v -0.2 0.4 -0.8
v -0.6 0.5 0.0999999
v -0.5 0.5 0.0999999
v -0.5 0.5 -5.96046e-008
v -0.6 0.5 -0.1
v -0.5 0.5 -0.1
v -0.6 0.5 -0.2
v -0.5 0.5 -0.2
v 0 0.5 -0.2
v 0.1 0.5 -0.2
v -0.1 0.5 -0.3
v 0 0.5 -0.3
v 0.1 0.5 -0.3
v -0.6 0.5 -0.4
v -0.5 0.5 -0.4
v -0.1 0.5 -0.4
v 0 0.5 -0.4
v -0.6 0.5 -0.5
v -0.5 0.5 -0.5
v -0.4 0.5 -0.5
v -0.1 0.5 -0.5
v 0 0.5 -0.5
v -0.6 0.5 -0.6
v -0.5 0.5 -0.6
v -0.4 0.5 -0.6
v -0.1 0.5 -0.6
v 0 0.5 -0.6
v -0.5 0.6 -5.96046e-008
v -0.4 0.6 -5.96046e-008
v -0.5 0.6 -0.1
v -0.4 0.6 -0.1
v -0.2 0.6 -0.1
v -0.5 0.6 -0.2
v -0.4 0.6 -0.2
v -0.3 0.6 -0.2
v -0.1 0.6 -0.2
v 0 0.6 -0.2
v -0.6 0.6 -0.3
v -0.5 0.6 -0.3
v -0.4 0.6 -0.3
v -0.3 0.6 -0.3
v -0.2 0.6 -0.3
v -0.1 0.6 -0.3
v 0 0.6 -0.3
v -0.6 0.6 -0.4
v -0.5 0.6 -0.4
v -0.4 0.6 -0.4
v -0.3 0.6 -0.4
v -0.2 0.6 -0.4
v -0.1 0.6 -0.4
v 0 0.6 -0.4
v -0.5 0.6 -0.5
v -0.4 0.6 -0.5
v -0.3 0.6 -0.5
v -0.1 0.6 -0.5
v 0 0.6 -0.5
v -0.5 0.7 -0.1
v -0.4 0.7 -0.1
v -0.6 0.7 -0.2
v -0.5 0.7 -0.2
v -0.4 0.7 -0.2
v -0.3 0.7 -0.2
v -0.6 0.7 -0.3
v -0.5 0.7 -0.3
v -0.4 0.7 -0.3
v -0.3 0.7 -0.3
v -0.2 0.7 -0.3
v -0.5 0.7 -0.4
v -0.2 0.7 -0.4
v -0.1 0.7 -0.4
v -0.2 0.7 -0.5
v -0.1 0.7 -0.5

# faces
f 3/3/1 2/3/1 1/3/1
f 4/3/1 2/3/1 3/3/1
f 9/3/1 6/3/1 5/3/1
f 10/3/1 8/3/1 7/3/1
f 11/3/1 8/3/1 10/3/1
f 12/3/1 9/3/1 5/3/1
f 13/3/1 9/3/1 12/3/1
f 14/3/1 8/3/1 11/3/1
f 15/3/1 8/3/1 14/3/1
f 22/3/1 19/3/1 18/3/1
f 23/3/1 19/3/1 22/3/1
f 24/3/1 17/3/1 16/3/1
f 25/3/1 17/3/1 24/3/1
f 26/1/1 21/1/1 20/1/1
f 27/1/1 21/1/1 26/1/1
f 28/3/1 24/3/1 23/3/1
f 29/1/1 25/1/1 24/1/1
f 29/3/1 24/3/1 28/3/1
f 30/1/1 25/1/1 29/1/1
f 37/3/1 32/3/1 31/3/1
f 38/3/1 36/3/1 35/3/1
f 39/3/1 36/3/1 38/3/1
f 41/3/1 34/3/1 33/3/1
f 42/3/1 34/3/1 41/3/1
f 43/3/1 37/3/1 31/3/1
f 44/1/1 40/1/1 39/1/1
f 44/1/1 39/1/1 38/1/1
f 45/1/1 40/1/1 44/1/1
f 47/1/1 42/1/1 41/1/1
f 48/1/1 42/1/1 47/1/1
f 49/3/1 43/3/1 31/3/1
f 49/3/1 44/3/1 43/3/1
f 50/1/1 45/1/1 44/1/1
f 50/3/1 44/3/1 49/3/1
f 51/1/1 45/1/1 50/1/1
f 52/4/1 46/4/1 45/4/1
f 52/1/1 45/1/1 51/1/1
f 53/1/1 47/1/1 46/1/1
f 53/4/1 46/4/1 52/4/1
f 54/4/1 48/4/1 47/4/1
f 54/1/1 47/1/1 53/1/1
f 55/4/1 48/4/1 54/4/1
f 56/1/1 53/1/1 52/1/1
f 56/1/1 52/1/1 51/1/1
f 57/1/1 53/1/1 56/1/1
f 58/1/1 53/1/1 57/1/1
f 59/3/1 57/3/1 56/3/1
f 60/3/1 57/3/1 59/3/1
f 65/3/1 62/3/1 61/3/1
f 66/3/1 62/3/1 65/3/1
f 67/3/1 64/3/1 63/3/1
f 68/3/1 64/3/1 67/3/1
f 69/1/1 68/1/1 67/1/1
f 70/1/1 68/1/1 69/1/1
f 76/3/1 72/3/1 71/3/1
f 76/3/1 73/3/1 72/3/1
f 77/3/1 73/3/1 76/3/1
f 78/3/1 73/3/1 77/3/1
f 80/1/1 75/1/1 74/1/1
f 81/1/1 75/1/1 80/1/1
f 82/3/1 78/3/1 77/3/1
f 83/3/1 78/3/1 82/3/1
f 84/3/1 80/3/1 79/3/1
f 85/3/1 80/3/1 84/3/1
f 88/3/1 87/3/1 86/3/1
f 89/3/1 87/3/1 88/3/1
f 92/1/1 91/1/1 90/1/1
f 93/1/1 91/1/1 92/1/1
f 96/3/1 95/3/1 94/3/1
f 97/3/1 95/3/1 96/3/1
f 100/3/1 99/3/1 98/3/1
f 101/3/1 99/3/1 100/3/1
f 102/1/1 101/1/1 100/1/1
f 103/1/1 101/1/1 102/1/1
f 106/1/1 105/1/1 104/1/1
f 107/1/1 105/1/1 106/1/1
f 108/3/1 107/3/1 106/3/1
f 109/3/1 107/3/1 108/3/1
f 114/3/1 111/3/1 110/3/1
f 115/3/1 113/3/1 112/3/1
f 116/3/1 113/3/1 115/3/1
f 117/3/1 114/3/1 110/3/1
f 118/3/1 114/3/1 117/3/1
f 119/3/2 120/3/2 122/3/2
f 120/1/2 121/1/2 122/1/2
f 122/1/2 121/1/2 123/1/2
f 119/3/2 122/3/2 124/3/2
f 124/3/2 122/3/2 125/3/2
f 126/3/2 127/3/2 128/3/2
f 128/3/2 127/3/2 129/3/2
f 130/3/2 131/3/2 134/3/2
f 132/1/2 133/1/2 135/1/2
f 135/1/2 133/1/2 136/1/2
f 130/3/2 134/3/2 137/3/2
f 137/3/2 134/3/2 138/3/2
f 138/3/2 139/3/2 140/3/2
f 140/3/2 139/3/2 141/3/2
f 142/3/2 143/3/2 144/3/2
f 144/3/2 143/3/2 145/3/2
f 145/3/2 146/3/2 147/3/2
f 147/3/2 146/3/2 148/3/2
f 149/1/2 150/1/2 153/1/2
f 153/1/2 150/1/2 154/1/2
f 151/3/2 152/3/2 157/3/2
f 157/3/2 152/3/2 158/3/2
f 155/3/2 156/3/2 159/3/2
f 159/3/2 156/3/2 160/3/2
f 161/3/2 162/3/2 163/3/2
f 163/3/2 162/3/2 164/3/2
f 163/1/2 164/1/2 167/1/2
f 167/1/2 164/1/2 168/1/2
f 165/1/2 166/1/2 169/1/2
f 169/1/2 166/1/2 170/1/2
f 169/3/2 170/3/2 172/3/2
f 170/3/2 171/3/2 172/3/2
f 172/3/2 171/3/2 173/3/2
f 173/3/2 174/3/2 175/3/2
f 175/3/2 174/3/2 176/3/2
f 177/3/2 178/3/2 181/3/2
f 181/3/2 178/3/2 182/3/2
f 179/3/2 180/3/2 186/3/2
f 186/3/2 180/3/2 187/3/2
f 183/3/2 184/3/2 188/3/2
f 184/1/2 185/1/2 189/1/2
f 188/3/2 184/3/2 189/3/2
f 189/1/2 185/1/2 190/1/2
f 186/1/2 187/1/2 191/1/2
f 191/1/2 187/1/2 192/1/2
f 193/3/2 194/3/2 195/3/2
f 195/3/2 194/3/2 196/3/2
f 196/3/2 197/3/2 198/3/2
f 198/3/2 197/3/2 199/3/2
f 200/3/2 201/3/2 202/3/2
f 202/3/2 201/3/2 203/3/2
f 204/3/2 205/3/2 209/3/2
f 205/1/2 206/1/2 210/1/2
f 209/3/2 205/3/2 210/3/2
f 206/3/2 207/3/2 211/3/2
f 210/1/2 206/1/2 211/1/2
f 211/3/2 207/3/2 212/3/2
f 208/3/2 209/3/2 213/3/2
f 213/3/2 209/3/2 214/3/2
f 210/3/2 211/3/2 215/3/2
f 215/3/2 211/3/2 216/3/2
f 217/3/2 218/3/2 219/3/2
f 219/3/2 218/3/2 220/3/2
f 220/3/2 218/3/2 221/3/2
f 221/3/2 218/3/2 222/3/2
f 222/3/2 218/3/2 223/3/2
f 223/3/2 218/3/2 224/3/2
f 222/3/2 223/3/2 225/3/2
f 223/2/2 224/2/2 226/2/2
f 225/3/2 223/3/2 226/3/2
f 224/3/2 218/3/2 227/3/2
f 226/2/2 224/2/2 227/2/2
f 227/3/2 218/3/2 228/3/2
f 222/3/2 225/3/2 229/3/2
f 229/3/2 225/3/2 230/3/2
f 233/3/3 232/3/3 231/3/3
f 235/3/3 233/3/3 231/3/3
f 235/3/3 234/3/3 233/3/3
f 236/3/3 234/3/3 235/3/3
f 239/3/3 238/3/3 237/3/3
f 240/3/3 238/3/3 239/3/3
f 241/3/3 238/3/3 240/3/3
f 242/3/3 238/3/3 241/3/3
f 243/3/3 241/3/3 240/3/3
f 244/3/3 241/3/3 243/3/3
f 246/3/3 241/3/3 244/3/3
f 247/3/3 241/3/3 246/3/3
f 248/3/3 246/3/3 245/3/3
f 249/3/3 246/3/3 248/3/3
f 252/3/3 251/3/3 250/3/3
f 254/3/3 252/3/3 250/3/3
f 255/1/3 253/1/3 252/1/3
f 255/3/3 252/3/3 254/3/3
f 256/1/3 253/1/3 255/1/3
f 261/3/3 258/3/3 257/3/3
f 261/3/3 259/3/3 258/3/3
f 262/3/3 259/3/3 261/3/3
f 264/1/3 261/1/3 260/1/3
f 265/1/3 261/1/3 264/1/3
f 265/3/3 264/3/3 263/3/3
f 266/1/3 261/1/3 265/1/3
f 268/3/3 265/3/3 263/3/3
f 268/3/3 266/3/3 265/3/3
f 269/3/3 266/3/3 268/3/3
f 270/3/3 266/3/3 269/3/3
f 271/3/3 268/3/3 267/3/3
f 271/3/3 269/3/3 268/3/3
f 272/3/3 269/3/3 271/3/3
f 273/3/3 271/3/3 267/3/3
f 274/3/3 271/3/3 273/3/3
f 277/3/3 276/3/3 275/3/3
f 278/3/3 276/3/3 277/3/3
f 283/1/3 280/1/3 279/1/3
f 284/1/3 280/1/3 283/1/3
f 286/3/3 282/3/3 281/3/3
f 287/3/3 282/3/3 286/3/3
f 288/1/3 285/1/3 284/1/3
f 289/3/3 286/3/3 285/3/3
f 289/1/3 285/1/3 288/1/3
f 290/3/3 286/3/3 289/3/3
f 293/3/3 292/3/3 291/3/3
f 294/3/3 292/3/3 293/3/3
f 297/3/3 296/3/3 295/3/3
f 298/3/3 296/3/3 297/3/3
f 302/1/3 300/1/3 299/1/3
f 303/3/3 301/3/3 300/3/3
f 303/1/3 300/1/3 302/1/3
f 304/3/3 301/3/3 303/3/3
f 307/3/3 306/3/3 305/3/3
f 308/3/3 306/3/3 307/3/3
f 312/3/3 310/3/3 309/3/3
f 312/3/3 311/3/3 310/3/3
f 313/3/3 311/3/3 312/3/3
f 314/3/3 312/3/3 309/3/3
f 315/3/3 312/3/3 314/3/3
f 318/3/3 317/3/3 316/3/3
f 319/3/3 317/3/3 318/3/3
f 321/3/3 320/3/3 319/3/3
f 322/3/3 320/3/3 321/3/3
f 325/3/3 324/3/3 323/3/3
f 326/3/3 324/3/3 325/3/3
f 331/3/3 328/3/3 327/3/3
f 332/3/3 328/3/3 331/3/3
f 333/3/3 330/3/3 329/3/3
f 334/3/3 330/3/3 333/3/3
f 335/1/3 332/1/3 331/1/3
f 336/3/3 333/3/3 332/3/3
f 336/1/3 332/1/3 335/1/3
f 337/3/3 333/3/3 336/3/3
f 341/3/3 339/3/3 338/3/3
f 342/3/3 339/3/3 341/3/3
f 343/3/3 341/3/3 340/3/3
f 344/3/3 341/3/3 343/3/3
f 345/3/4 346/3/4 347/3/4
f 345/3/4 347/3/4 349/3/4
f 347/1/4 348/1/4 350/1/4
f 349/3/4 347/3/4 350/3/4
f 350/1/4 348/1/4 351/1/4
f 352/3/4 353/3/4 354/3/4
f 354/3/4 353/3/4 355/3/4
f 356/3/4 357/3/4 358/3/4
f 358/3/4 357/3/4 359/3/4
f 360/1/4 361/1/4 362/1/4
f 362/1/4 361/1/4 363/1/4
f 364/3/4 365/3/4 366/3/4
f 366/3/4 365/3/4 367/3/4
f 368/3/4 369/3/4 371/3/4
f 371/3/4 369/3/4 372/3/4
f 370/3/4 371/3/4 373/3/4
f 373/3/4 371/3/4 374/3/4
f 375/3/4 376/3/4 377/3/4
f 377/3/4 376/3/4 378/3/4
f 379/1/4 380/1/4 381/1/4
f 381/1/4 380/1/4 382/1/4
f 382/3/4 383/3/4 384/3/4
f 384/3/4 383/3/4 386/3/4
f 385/3/4 386/3/4 387/3/4
f 387/3/4 386/3/4 388/3/4
f 386/3/4 383/3/4 389/3/4
f 388/3/4 386/3/4 389/3/4
f 390/3/4 391/3/4 393/3/4
f 391/1/4 392/1/4 394/1/4
f 393/3/4 391/3/4 394/3/4
f 394/1/4 392/1/4 395/1/4
f 396/1/4 397/1/4 399/1/4
f 399/1/4 397/1/4 400/1/4
f 398/3/4 399/3/4 401/3/4
f 399/3/4 400/3/4 401/3/4
f 401/3/4 400/3/4 402/3/4
f 403/1/4 404/1/4 406/1/4
f 404/3/4 405/3/4 407/3/4
f 406/1/4 404/1/4 407/1/4
f 407/3/4 405/3/4 408/3/4
f 408/3/4 405/3/4 409/3/4
f 407/3/4 408/3/4 410/3/4
f 410/3/4 408/3/4 411/3/4
f 412/3/4 413/3/4 416/3/4
f 413/1/4 414/1/4 417/1/4
f 416/3/4 413/3/4 417/3/4
f 414/4/4 415/4/4 418/4/4
f 417/1/4 414/1/4 418/1/4
f 418/4/4 415/4/4 419/4/4
f 418/1/4 419/1/4 420/1/4
f 420/1/4 419/1/4 421/1/4
f 422/3/4 423/3/4 426/3/4
f 423/1/4 424/1/4 426/1/4
f 424/3/4 425/3/4 427/3/4
f 426/1/4 424/1/4 427/1/4
f 427/3/4 425/3/4 428/3/4
f 422/3/4 426/3/4 429/3/4
f 426/3/4 427/3/4 429/3/4
f 429/3/4 427/3/4 430/3/4
f 431/3/4 432/3/4 434/3/4
f 432/1/4 433/1/4 434/1/4
f 434/1/4 433/1/4 435/1/4
f 431/3/4 434/3/4 436/3/4
f 434/2/4 435/2/4 437/2/4
f 436/3/4 434/3/4 437/3/4
f 437/2/4 435/2/4 438/2/4
f 439/3/4 440/3/4 442/3/4
f 440/1/4 441/1/4 443/1/4
f 442/3/4 440/3/4 443/3/4
f 443/1/4 441/1/4 444/1/4
f 445/3/4 446/3/4 448/3/4
f 446/1/4 447/1/4 449/1/4
f 448/3/4 446/3/4 449/3/4
f 449/1/4 447/1/4 450/1/4
f 454/3/5 452/3/5 451/3/5
f 455/3/5 452/3/5 454/3/5
f 458/3/5 454/3/5 453/3/5
f 458/3/5 456/3/5 455/3/5
f 458/3/5 455/3/5 454/3/5
f 459/3/5 456/3/5 458/3/5
f 462/3/5 458/3/5 457/3/5
f 462/3/5 460/3/5 459/3/5
f 462/3/5 459/3/5 458/3/5
f 463/3/5 462/3/5 461/3/5
f 464/3/5 460/3/5 462/3/5
f 464/3/5 462/3/5 463/3/5
f 465/3/5 460/3/5 464/3/5
f 466/3/5 460/3/5 465/3/5
f 467/3/5 460/3/5 466/3/5
f 468/3/5 460/3/5 467/3/5
f 469/3/5 460/3/5 468/3/5
f 470/3/5 460/3/5 469/3/5
f 471/3/5 460/3/5 470/3/5
f 472/3/5 460/3/5 471/3/5
f 473/3/5 471/3/5 470/3/5
f 474/3/5 471/3/5 473/3/5
f 475/3/5 471/3/5 474/3/5
f 476/3/5 471/3/5 475/3/5
f 477/3/5 475/3/5 474/3/5
f 478/3/5 475/3/5 477/3/5
f 481/3/5 480/3/5 479/3/5
f 482/3/5 480/3/5 481/3/5
f 485/3/5 484/3/5 483/3/5
f 486/3/5 484/3/5 485/3/5
f 487/3/6 488/3/6 489/3/6
f 489/3/6 488/3/6 490/3/6
f 491/3/6 492/3/6 493/3/6
f 493/3/6 492/3/6 494/3/6
f 494/3/6 495/3/6 496/3/6
f 496/3/6 495/3/6 497/3/6
f 498/3/6 499/3/6 503/3/6
f 503/3/6 499/3/6 504/3/6
f 501/3/6 502/3/6 505/3/6
f 500/3/6 501/3/6 505/3/6
f 505/3/6 502/3/6 506/3/6
f 506/3/6 502/3/6 507/3/6
f 507/3/6 502/3/6 508/3/6
f 506/3/6 507/3/6 509/3/6
f 509/3/6 507/3/6 510/3/6
f 511/3/6 512/3/6 515/3/6
f 515/3/6 512/3/6 516/3/6
f 516/3/6 512/3/6 517/3/6
f 513/3/6 514/3/6 520/3/6
f 520/3/6 514/3/6 521/3/6
f 515/3/6 516/3/6 522/3/6
f 522/3/6 516/3/6 523/3/6
f 518/3/6 519/3/6 524/3/6
f 524/3/6 519/3/6 525/3/6
f 525/3/6 526/3/6 529/3/6
f 524/3/6 525/3/6 529/3/6
f 529/3/6 526/3/6 530/3/6
f 527/3/6 528/3/6 532/3/6
f 532/3/6 528/3/6 533/3/6
f 531/3/6 532/3/6 534/3/6
f 534/3/6 532/3/6 535/3/6
f 536/1/6 537/1/6 541/1/6
f 541/1/6 537/1/6 542/1/6
f 538/1/6 539/1/6 543/1/6
f 539/3/6 540/3/6 544/3/6
f 543/1/6 539/1/6 544/1/6
f 544/3/6 540/3/6 545/3/6
f 544/1/6 545/1/6 547/1/6
f 547/1/6 545/1/6 548/1/6
f 546/1/6 547/1/6 551/1/6
f 547/1/6 548/1/6 551/1/6
f 551/1/6 548/1/6 552/1/6
f 552/1/6 548/1/6 553/1/6
f 549/3/6 550/3/6 556/3/6
f 556/3/6 550/3/6 557/3/6
f 554/3/6 555/3/6 560/3/6
f 560/3/6 555/3/6 561/3/6
f 556/1/6 557/1/6 562/1/6
f 562/1/6 557/1/6 563/1/6
f 558/3/6 559/3/6 565/3/6
f 565/3/6 559/3/6 566/3/6
f 560/2/6 561/2/6 568/2/6
f 568/2/6 561/2/6 569/2/6
f 566/1/6 567/1/6 571/1/6
f 564/1/6 565/1/6 571/1/6
f 565/1/6 566/1/6 571/1/6
f 571/1/6 567/1/6 572/1/6
f 572/1/6 567/1/6 573/1/6
f 568/3/6 569/3/6 574/3/6
f 574/3/6 569/3/6 575/3/6
f 570/1/6 571/1/6 576/1/6
f 571/2/6 572/2/6 577/2/6
f 576/1/6 571/1/6 577/1/6
f 577/2/6 572/2/6 578/2/6
f 572/1/6 573/1/6 579/1/6
f 578/2/6 572/2/6 579/2/6
f 579/1/6 573/1/6 580/1/6
f 578/1/6 579/1/6 581/1/6
f 581/1/6 579/1/6 582/1/6
f 583/3/6 584/3/6 585/3/6
f 583/3/6 585/3/6 586/3/6
f 586/3/6 585/3/6 587/3/6
f 586/1/6 587/1/6 588/1/6
f 588/1/6 587/1/6 589/1/6
f 590/3/6 591/3/6 593/3/6
f 593/3/6 591/3/6 594/3/6
f 592/3/6 593/3/6 597/3/6
f 597/3/6 593/3/6 598/3/6
f 595/1/6 596/1/6 599/1/6
f 599/1/6 596/1/6 600/1/6
f 599/4/6 600/4/6 604/4/6
f 600/1/6 601/1/6 605/1/6
f 604/4/6 600/4/6 605/4/6
f 605/1/6 601/1/6 606/1/6
f 602/3/6 603/3/6 607/3/6
f 607/3/6 603/3/6 608/3/6
f 609/3/6 610/3/6 611/3/6
f 611/3/6 610/3/6 612/3/6
f 612/3/6 613/3/6 615/3/6
f 615/3/6 613/3/6 616/3/6
f 614/3/6 615/3/6 620/3/6
f 620/3/6 615/3/6 621/3/6
f 616/3/6 613/3/6 622/3/6
f 622/3/6 613/3/6 623/3/6
f 617/3/6 618/3/6 624/3/6
f 624/3/6 618/3/6 625/3/6
f 619/1/6 620/1/6 626/1/6
f 626/1/6 620/1/6 627/1/6
f 623/3/6 624/3/6 630/3/6
f 630/3/6 624/3/6 631/3/6
f 627/1/6 628/1/6 633/1/6
f 628/3/6 629/3/6 634/3/6
f 633/1/6 628/1/6 634/1/6
f 634/3/6 629/3/6 635/3/6
f 631/3/6 632/3/6 636/3/6
f 636/3/6 632/3/6 637/3/6
f 638/3/6 639/3/6 641/3/6
f 641/3/6 639/3/6 642/3/6
f 640/3/6 641/3/6 644/3/6
f 644/3/6 641/3/6 645/3/6
f 642/3/6 643/3/6 646/3/6
f 646/3/6 643/3/6 647/3/6
f 647/3/6 648/3/6 649/3/6
f 646/3/6 647/3/6 649/3/6
f 645/3/6 646/3/6 649/3/6
f 649/3/6 648/3/6 650/3/6
f 650/3/6 651/3/6 652/3/6
f 652/3/6 651/3/6 653/3/6
